<svg width="24" height="24" viewBox="0 0 24 24" fill="none" xmlns="http://www.w3.org/2000/svg">
<path d="M13.5 8.25V3.345C14.1938 3.607 14.824 4.01348 15.3488 4.5375L17.9617 7.152C18.4864 7.67616 18.8932 8.30617 19.155 9H14.25C14.0511 9 13.8603 8.92098 13.7197 8.78033C13.579 8.63968 13.5 8.44891 13.5 8.25ZM19.5 10.8637V17.25C19.4988 18.2442 19.1033 19.1973 18.4003 19.9003C17.6973 20.6033 16.7442 20.9988 15.75 21H8.25C7.2558 20.9988 6.30267 20.6033 5.59966 19.9003C4.89666 19.1973 4.50119 18.2442 4.5 17.25V6.75C4.50119 5.7558 4.89666 4.80267 5.59966 4.09966C6.30267 3.39666 7.2558 3.00119 8.25 3L11.6363 3C11.7585 3 11.8793 3.00975 12 3.018V8.25C12 8.84674 12.2371 9.41903 12.659 9.84099C13.081 10.2629 13.6533 10.5 14.25 10.5H19.482C19.4902 10.6207 19.5 10.7415 19.5 10.8637ZM15 15.75C15 15.5511 14.921 15.3603 14.7803 15.2197C14.6397 15.079 14.4489 15 14.25 15H12.75V13.5C12.75 13.3011 12.671 13.1103 12.5303 12.9697C12.3897 12.829 12.1989 12.75 12 12.75C11.8011 12.75 11.6103 12.829 11.4697 12.9697C11.329 13.1103 11.25 13.3011 11.25 13.5V15H9.75C9.55109 15 9.36032 15.079 9.21967 15.2197C9.07902 15.3603 9 15.5511 9 15.75C9 15.9489 9.07902 16.1397 9.21967 16.2803C9.36032 16.421 9.55109 16.5 9.75 16.5H11.25V18C11.25 18.1989 11.329 18.3897 11.4697 18.5303C11.6103 18.671 11.8011 18.75 12 18.75C12.1989 18.75 12.3897 18.671 12.5303 18.5303C12.671 18.3897 12.75 18.1989 12.75 18V16.5H14.25C14.4489 16.5 14.6397 16.421 14.7803 16.2803C14.921 16.1397 15 15.9489 15 15.75Z" fill="#0CA6E9"/>
</svg>
