<svg width="24" height="24" viewBox="0 0 24 24" fill="none" xmlns="http://www.w3.org/2000/svg">
<path d="M13.5 8.25V3.345C14.1938 3.607 14.824 4.01348 15.3488 4.5375L17.9617 7.152C18.4864 7.67616 18.8932 8.30617 19.155 9H14.25C14.0511 9 13.8603 8.92098 13.7197 8.78033C13.579 8.63968 13.5 8.44891 13.5 8.25ZM19.5 10.8637V17.25C19.4988 18.2442 19.1033 19.1973 18.4003 19.9003C17.6973 20.6033 16.7442 20.9988 15.75 21H8.25C7.2558 20.9988 6.30267 20.6033 5.59966 19.9003C4.89666 19.1973 4.50119 18.2442 4.5 17.25V6.75C4.50119 5.7558 4.89666 4.80267 5.59966 4.09966C6.30267 3.39666 7.2558 3.00119 8.25 3L11.6363 3C11.7585 3 11.8793 3.00975 12 3.018V8.25C12 8.84674 12.2371 9.41903 12.659 9.84099C13.081 10.2629 13.6533 10.5 14.25 10.5H19.482C19.4902 10.6207 19.5 10.7415 19.5 10.8637ZM15.543 13.7332C15.4059 13.5893 15.2173 13.5057 15.0186 13.5008C14.8198 13.4959 14.6273 13.5701 14.4832 13.707L11.7833 16.2803C11.7111 16.3528 11.6249 16.4099 11.5299 16.4479C11.4348 16.4859 11.3331 16.504 11.2308 16.5012C11.1285 16.4984 11.0278 16.4747 10.9351 16.4315C10.8423 16.3884 10.7593 16.3267 10.6913 16.2502L9.4995 15.1898C9.42593 15.1242 9.34015 15.0737 9.24708 15.0412C9.154 15.0088 9.05545 14.995 8.95704 15.0006C8.7583 15.012 8.57223 15.1019 8.43975 15.2505C8.37415 15.3241 8.32369 15.4098 8.29125 15.5029C8.2588 15.596 8.245 15.6945 8.25064 15.793C8.26204 15.9917 8.35191 16.1778 8.5005 16.3102L9.6585 17.3408C10.0783 17.7606 10.6469 17.9975 11.2406 17.9999C11.8343 18.0023 12.4049 17.77 12.828 17.3535L15.5167 14.793C15.6607 14.6559 15.7443 14.4673 15.7492 14.2686C15.7541 14.0698 15.6799 13.8773 15.543 13.7332V13.7332Z" fill="#0CA6E9"/>
</svg>
