<svg width="24" height="24" viewBox="0 0 24 24" fill="none" xmlns="http://www.w3.org/2000/svg">
<path d="M20.4501 10.0667C19.2873 8.17453 16.6423 5 12 5C7.35772 5 4.7127 8.17453 3.54988 10.0667C3.19041 10.6476 3 11.317 3 12C3 12.683 3.19041 13.3524 3.54988 13.9333C4.7127 15.8255 7.35772 19 12 19C16.6423 19 19.2873 15.8255 20.4501 13.9333C20.8096 13.3524 21 12.683 21 12C21 11.317 20.8096 10.6476 20.4501 10.0667V10.0667ZM19.1718 13.1491C18.1732 14.7715 15.9128 17.5019 12 17.5019C8.0872 17.5019 5.82679 14.7715 4.82816 13.1491C4.61459 12.8038 4.50147 12.4059 4.50147 12C4.50147 11.5941 4.61459 11.1962 4.82816 10.8509C5.82679 9.22846 8.0872 6.49813 12 6.49813C15.9128 6.49813 18.1732 9.22547 19.1718 10.8509C19.3854 11.1962 19.4985 11.5941 19.4985 12C19.4985 12.4059 19.3854 12.8038 19.1718 13.1491V13.1491Z" fill="white"/>
<path d="M11.9996 8.25488C11.2582 8.25488 10.5334 8.47454 9.91697 8.88608C9.30052 9.29762 8.82005 9.88256 8.53632 10.5669C8.2526 11.2513 8.17837 12.0044 8.32301 12.7309C8.46765 13.4574 8.82467 14.1247 9.34892 14.6485C9.87317 15.1723 10.5411 15.529 11.2683 15.6736C11.9954 15.8181 12.7492 15.7439 13.4341 15.4604C14.1191 15.177 14.7045 14.6969 15.1164 14.081C15.5283 13.4651 15.7482 12.741 15.7482 12.0002C15.747 11.0072 15.3517 10.0553 14.6489 9.35318C13.9462 8.65105 12.9934 8.25607 11.9996 8.25488V8.25488ZM11.9996 14.2474C11.5547 14.2474 11.1199 14.1156 10.75 13.8687C10.3801 13.6217 10.0919 13.2708 9.92163 12.8602C9.7514 12.4495 9.70685 11.9977 9.79364 11.5618C9.88042 11.1259 10.0946 10.7255 10.4092 10.4112C10.7237 10.0969 11.1245 9.8829 11.5608 9.79619C11.9971 9.70948 12.4493 9.75398 12.8603 9.92407C13.2713 10.0942 13.6226 10.3822 13.8697 10.7517C14.1168 11.1213 14.2488 11.5557 14.2488 12.0002C14.2488 12.5962 14.0118 13.1678 13.59 13.5892C13.1682 14.0106 12.5961 14.2474 11.9996 14.2474Z" fill="white"/>
</svg>
