<svg width="24" height="24" viewBox="0 0 24 24" fill="none" xmlns="http://www.w3.org/2000/svg">
<path d="M17.4444 5.2665C17.4444 5.2605 17.4444 5.256 17.4444 5.25V3.75C17.4444 3.55109 17.3625 3.36032 17.2166 3.21967C17.0708 3.07902 16.8729 3 16.6667 3C16.4604 3 16.2626 3.07902 16.1167 3.21967C15.9708 3.36032 15.8889 3.55109 15.8889 3.75V4.575C15.6329 4.52487 15.3723 4.49975 15.1111 4.5H14.3333V3.75C14.3333 3.55109 14.2514 3.36032 14.1055 3.21967C13.9597 3.07902 13.7618 3 13.5556 3C13.3493 3 13.1514 3.07902 13.0056 3.21967C12.8597 3.36032 12.7778 3.55109 12.7778 3.75V4.5H11.2222V3.75C11.2222 3.55109 11.1403 3.36032 10.9944 3.21967C10.8486 3.07902 10.6507 3 10.4444 3C10.2382 3 10.0403 3.07902 9.89447 3.21967C9.74861 3.36032 9.66667 3.55109 9.66667 3.75V4.5H8.88889C8.62768 4.49975 8.3671 4.52487 8.11111 4.575V3.75C8.11111 3.55109 8.02917 3.36032 7.88331 3.21967C7.73744 3.07902 7.53961 3 7.33333 3C7.12705 3 6.92922 3.07902 6.78336 3.21967C6.6375 3.36032 6.55556 3.55109 6.55556 3.75V5.25V5.2665C6.07394 5.61328 5.68265 6.0634 5.41266 6.58124C5.14267 7.09907 5.00139 7.6704 5 8.25V17.25C5.00124 18.2442 5.41135 19.1973 6.14039 19.9003C6.86943 20.6033 7.85787 20.9988 8.88889 21H15.1111C16.1421 20.9988 17.1306 20.6033 17.8596 19.9003C18.5886 19.1973 18.9988 18.2442 19 17.25V8.25C18.9986 7.6704 18.8573 7.09907 18.5873 6.58124C18.3173 6.0634 17.9261 5.61328 17.4444 5.2665ZM17.4444 17.25C17.4444 17.8467 17.1986 18.419 16.761 18.841C16.3234 19.2629 15.7299 19.5 15.1111 19.5H8.88889C8.27005 19.5 7.67656 19.2629 7.23897 18.841C6.80139 18.419 6.55556 17.8467 6.55556 17.25V8.25C6.55556 7.65326 6.80139 7.08097 7.23897 6.65901C7.67656 6.23705 8.27005 6 8.88889 6H15.1111C15.7299 6 16.3234 6.23705 16.761 6.65901C17.1986 7.08097 17.4444 7.65326 17.4444 8.25V17.25ZM15.8889 9C15.8889 9.19891 15.8069 9.38968 15.6611 9.53033C15.5152 9.67098 15.3174 9.75 15.1111 9.75H8.88889C8.68261 9.75 8.48478 9.67098 8.33892 9.53033C8.19306 9.38968 8.11111 9.19891 8.11111 9C8.11111 8.80109 8.19306 8.61032 8.33892 8.46967C8.48478 8.32902 8.68261 8.25 8.88889 8.25H15.1111C15.3174 8.25 15.5152 8.32902 15.6611 8.46967C15.8069 8.61032 15.8889 8.80109 15.8889 9ZM15.8889 12C15.8889 12.1989 15.8069 12.3897 15.6611 12.5303C15.5152 12.671 15.3174 12.75 15.1111 12.75H8.88889C8.68261 12.75 8.48478 12.671 8.33892 12.5303C8.19306 12.3897 8.11111 12.1989 8.11111 12C8.11111 11.8011 8.19306 11.6103 8.33892 11.4697C8.48478 11.329 8.68261 11.25 8.88889 11.25H15.1111C15.3174 11.25 15.5152 11.329 15.6611 11.4697C15.8069 11.6103 15.8889 11.8011 15.8889 12ZM12.7778 15C12.7778 15.1989 12.6958 15.3897 12.55 15.5303C12.4041 15.671 12.2063 15.75 12 15.75H8.88889C8.68261 15.75 8.48478 15.671 8.33892 15.5303C8.19306 15.3897 8.11111 15.1989 8.11111 15C8.11111 14.8011 8.19306 14.6103 8.33892 14.4697C8.48478 14.329 8.68261 14.25 8.88889 14.25H12C12.2063 14.25 12.4041 14.329 12.55 14.4697C12.6958 14.6103 12.7778 14.8011 12.7778 15Z" fill="white"/>
</svg>
