<svg width="25" height="25" viewBox="0 0 25 25" fill="none" xmlns="http://www.w3.org/2000/svg">
<path d="M20.15 5.34559C19.7224 4.99966 19.2208 4.75041 18.6815 4.61593C18.1422 4.48145 17.5789 4.46512 17.0322 4.56812L15.7092 4.88231C15.0188 5.005 14.3946 5.35856 13.9453 5.88147C13.4959 6.40437 13.2499 7.06351 13.25 7.74417V18.9931C12.7526 19.0636 12.2474 19.0636 11.75 18.9931V7.74417C11.7525 7.06979 11.5121 6.41572 11.0704 5.89484C10.6287 5.37395 10.0133 5.01893 9.3305 4.89104L7.925 4.5594C7.38437 4.46346 6.8286 4.48394 6.29703 4.61938C5.76547 4.75482 5.2711 5.00191 4.84892 5.34316C4.42675 5.6844 4.08709 6.11147 3.85399 6.59412C3.62088 7.07678 3.50004 7.60322 3.5 8.13618L3.5 15.9858C3.50004 16.8373 3.80823 17.6617 4.37085 18.3155C4.93347 18.9693 5.71483 19.4108 6.57875 19.5633L11.2932 20.3945C12.0912 20.5352 12.9088 20.5352 13.7067 20.3945L18.425 19.5633C19.2882 19.4101 20.0687 18.9682 20.6306 18.3145C21.1925 17.6608 21.5001 16.8367 21.5 15.9858V8.13618C21.5003 7.6034 21.3795 7.07711 21.1462 6.59477C20.9129 6.11243 20.5727 5.68591 20.15 5.34559Z" fill="#1D283A"/>
</svg>
