<svg width="25" height="25" viewBox="0 0 25 25" fill="none" xmlns="http://www.w3.org/2000/svg">
<path d="M20.15 5.34559C19.7284 5.00371 19.2343 4.75605 18.7029 4.62017C18.1714 4.4843 17.6156 4.46355 17.075 4.5594L14.2085 5.06413C13.5467 5.18198 12.945 5.51216 12.5 6.0016C12.0539 5.51131 11.4504 5.18106 10.787 5.06413L7.925 4.5594C7.38437 4.46346 6.8286 4.48394 6.29703 4.61938C5.76547 4.75482 5.2711 5.00191 4.84892 5.34316C4.42675 5.6844 4.08709 6.11147 3.85399 6.59412C3.62088 7.07678 3.50004 7.60322 3.5 8.13618L3.5 15.9858C3.50004 16.8373 3.80823 17.6617 4.37085 18.3155C4.93347 18.9693 5.71483 19.4108 6.57875 19.5633L11.2932 20.3945C12.0912 20.5352 12.9088 20.5352 13.7067 20.3945L18.425 19.5633C19.2882 19.4101 20.0687 18.9682 20.6306 18.3145C21.1925 17.6608 21.5001 16.8367 21.5 15.9858V8.13618C21.5003 7.6034 21.3795 7.07711 21.1462 6.59477C20.9129 6.11243 20.5727 5.68591 20.15 5.34559ZM11.75 18.9931C11.687 18.9843 11.624 18.9742 11.561 18.9633L6.84725 18.1327C6.32882 18.0412 5.85995 17.7762 5.52237 17.3839C5.18479 16.9915 4.99992 16.4967 5 15.9858V8.13618C5 7.55751 5.23705 7.00255 5.65901 6.59338C6.08097 6.1842 6.65326 5.95433 7.25 5.95433C7.38582 5.95464 7.52134 5.96656 7.655 5.98996L10.52 6.49906C10.8647 6.56023 11.1765 6.7365 11.4011 6.99728C11.6258 7.25807 11.7492 7.5869 11.75 7.92672V18.9931ZM20 15.9858C20.0001 16.4967 19.8152 16.9915 19.4776 17.3839C19.1401 17.7762 18.6712 18.0412 18.1527 18.1327L13.439 18.9633C13.376 18.9742 13.313 18.9843 13.25 18.9931V7.92672C13.2499 7.58607 13.3732 7.2562 13.5982 6.99464C13.8233 6.73307 14.1359 6.5564 14.4815 6.49542L17.3472 5.98633C17.6718 5.92907 18.0053 5.94171 18.3243 6.02335C18.6432 6.105 18.9398 6.25365 19.1929 6.45877C19.446 6.6639 19.6495 6.92049 19.789 7.21036C19.9284 7.50023 20.0005 7.8163 20 8.13618V15.9858Z" fill="white"/>
</svg>
