<svg width="25" height="25" viewBox="0 0 25 25" fill="none" xmlns="http://www.w3.org/2000/svg">
<path d="M16.5 3.5H8.5C7.43952 3.50119 6.42285 3.89666 5.67298 4.59966C4.92311 5.30267 4.50127 6.2558 4.5 7.25V18.5C4.5 19.2956 4.83714 20.0587 5.43726 20.6213C6.03737 21.1839 6.85131 21.5 7.7 21.5H16.5C17.5605 21.4988 18.5772 21.1033 19.327 20.4003C20.0769 19.6973 20.4987 18.7442 20.5 17.75V7.25C20.4987 6.2558 20.0769 5.30267 19.327 4.59966C18.5772 3.89666 17.5605 3.50119 16.5 3.5V3.5ZM18.9 7.25V15.5H9.3V5H16.5C17.1365 5 17.747 5.23705 18.1971 5.65901C18.6471 6.08097 18.9 6.65326 18.9 7.25ZM7.7 5.129V15.5C7.1381 15.4995 6.58608 15.6385 6.1 15.9028V7.25C6.10007 6.78477 6.25397 6.33099 6.54051 5.95115C6.82704 5.57131 7.23213 5.28408 7.7 5.129ZM16.5 20H7.7C7.27565 20 6.86869 19.842 6.56863 19.5607C6.26857 19.2794 6.1 18.8978 6.1 18.5C6.1 18.1022 6.26857 17.7206 6.56863 17.4393C6.86869 17.158 7.27565 17 7.7 17H18.9V17.75C18.9 18.3467 18.6471 18.919 18.1971 19.341C17.747 19.7629 17.1365 20 16.5 20Z" fill="white"/>
</svg>
