<svg width="24" height="24" viewBox="0 0 24 24" fill="none" xmlns="http://www.w3.org/2000/svg">
<path fill-rule="evenodd" clip-rule="evenodd" d="M14.3161 5.05129C14.4407 5.09276 14.556 5.15838 14.6552 5.2444C14.7545 5.33042 14.8359 5.43516 14.8946 5.55263C14.9534 5.6701 14.9885 5.798 14.9978 5.92902C15.0072 6.06004 14.9906 6.19162 14.9491 6.31624L10.949 18.3158C10.8652 18.5675 10.6848 18.7756 10.4476 18.8943C10.2103 19.013 9.93564 19.0326 9.68395 18.9488C9.43225 18.865 9.22415 18.6846 9.10544 18.4474C8.98673 18.2102 8.96712 17.9355 9.05093 17.6838L13.051 5.68426C13.0925 5.55963 13.1581 5.44438 13.2441 5.34511C13.3302 5.24584 13.4349 5.16449 13.5524 5.10571C13.6699 5.04693 13.7978 5.01187 13.9288 5.00253C14.0598 4.99319 14.1914 5.00976 14.3161 5.05129ZM7.7069 8.29317C7.89437 8.48069 7.99969 8.73499 7.99969 9.00014C7.99969 9.2653 7.89437 9.51959 7.7069 9.70711L5.41384 12L7.7069 14.2929C7.80241 14.3852 7.87859 14.4955 7.931 14.6175C7.98342 14.7395 8.011 14.8707 8.01216 15.0035C8.01331 15.1363 7.98801 15.268 7.93773 15.3909C7.88744 15.5138 7.81319 15.6254 7.71929 15.7193C7.6254 15.8132 7.51374 15.8874 7.39084 15.9377C7.26795 15.988 7.13626 16.0133 7.00348 16.0121C6.8707 16.011 6.73947 15.9834 6.61747 15.931C6.49546 15.8786 6.38511 15.8024 6.29286 15.7069L3.29279 12.707C3.10532 12.5195 3 12.2652 3 12C3 11.7349 3.10532 11.4806 3.29279 11.2931L6.29286 8.29317C6.4804 8.1057 6.73471 8.00039 6.99988 8.00039C7.26505 8.00039 7.51937 8.1057 7.7069 8.29317ZM16.2931 8.29317C16.4806 8.1057 16.7349 8.00039 17.0001 8.00039C17.2653 8.00039 17.5196 8.1057 17.7071 8.29317L20.7072 11.2931C20.8947 11.4806 21 11.7349 21 12C21 12.2652 20.8947 12.5195 20.7072 12.707L17.7071 15.7069C17.6149 15.8024 17.5045 15.8786 17.3825 15.931C17.2605 15.9834 17.1293 16.011 16.9965 16.0121C16.8637 16.0133 16.7321 15.988 16.6092 15.9377C16.4863 15.8874 16.3746 15.8132 16.2807 15.7193C16.1868 15.6254 16.1126 15.5138 16.0623 15.3909C16.012 15.268 15.9867 15.1363 15.9878 15.0035C15.989 14.8707 16.0166 14.7395 16.069 14.6175C16.1214 14.4955 16.1976 14.3852 16.2931 14.2929L18.5862 12L16.2931 9.70711C16.1056 9.51959 16.0003 9.2653 16.0003 9.00014C16.0003 8.73499 16.1056 8.48069 16.2931 8.29317Z" fill="white"/>
</svg>
