<svg width="25" height="25" viewBox="0 0 25 25" fill="none" xmlns="http://www.w3.org/2000/svg">
<path fill-rule="evenodd" clip-rule="evenodd" d="M15.0734 4.55861C15.2119 4.60601 15.3399 4.681 15.4503 4.77931C15.5606 4.87762 15.651 4.99732 15.7163 5.13157C15.7816 5.26583 15.8205 5.412 15.8309 5.56174C15.8413 5.71148 15.8229 5.86185 15.7767 6.00427L11.3322 19.7181C11.2391 20.0057 11.0387 20.2435 10.7751 20.3792C10.5115 20.5148 10.2063 20.5372 9.92661 20.4415C9.64694 20.3457 9.41573 20.1396 9.28382 19.8684C9.15192 19.5973 9.13013 19.2834 9.22326 18.9958L13.6678 5.28202C13.7139 5.13957 13.7868 5.00786 13.8824 4.89441C13.978 4.78096 14.0944 4.68799 14.2249 4.62081C14.3554 4.55363 14.4975 4.51356 14.6431 4.50289C14.7887 4.49222 14.9349 4.51115 15.0734 4.55861ZM7.72989 8.26362C7.93819 8.47793 8.05521 8.76856 8.05521 9.07159C8.05521 9.37462 7.93819 9.66525 7.72989 9.87956L5.18205 12.5L7.72989 15.1205C7.83601 15.2259 7.92066 15.352 7.97889 15.4915C8.03713 15.6309 8.06778 15.7809 8.06906 15.9326C8.07034 16.0843 8.04223 16.2348 7.98636 16.3753C7.93049 16.5157 7.84799 16.6433 7.74366 16.7506C7.63933 16.8579 7.51527 16.9428 7.37872 17.0002C7.24216 17.0577 7.09585 17.0866 6.94831 17.0853C6.80078 17.084 6.65497 17.0524 6.51941 16.9926C6.38385 16.9327 6.26124 16.8456 6.15874 16.7364L2.82533 13.308C2.61702 13.0937 2.5 12.8031 2.5 12.5C2.5 12.197 2.61702 11.9064 2.82533 11.6921L6.15874 8.26362C6.36711 8.04938 6.64968 7.92902 6.94431 7.92902C7.23895 7.92902 7.52152 8.04938 7.72989 8.26362ZM17.2701 8.26362C17.4785 8.04938 17.7611 7.92902 18.0557 7.92902C18.3503 7.92902 18.6329 8.04938 18.8413 8.26362L22.1747 11.6921C22.383 11.9064 22.5 12.197 22.5 12.5C22.5 12.8031 22.383 13.0937 22.1747 13.308L18.8413 16.7364C18.7388 16.8456 18.6162 16.9327 18.4806 16.9926C18.345 17.0524 18.1992 17.084 18.0517 17.0853C17.9042 17.0866 17.7578 17.0577 17.6213 17.0002C17.4847 16.9428 17.3607 16.8579 17.2563 16.7506C17.152 16.6433 17.0695 16.5157 17.0136 16.3753C16.9578 16.2348 16.9297 16.0843 16.9309 15.9326C16.9322 15.7809 16.9629 15.6309 17.0211 15.4915C17.0793 15.352 17.164 15.2259 17.2701 15.1205L19.818 12.5L17.2701 9.87956C17.0618 9.66525 16.9448 9.37462 16.9448 9.07159C16.9448 8.76856 17.0618 8.47793 17.2701 8.26362Z" fill="white"/>
</svg>
