<svg width="17" height="17" viewBox="0 0 17 17" fill="none" xmlns="http://www.w3.org/2000/svg">
<path id="Vector" fill-rule="evenodd" clip-rule="evenodd" d="M8.5 16.5C10.6217 16.5 12.6566 15.6571 14.1569 14.1569C15.6571 12.6566 16.5 10.6217 16.5 8.5C16.5 6.37827 15.6571 4.34344 14.1569 2.84315C12.6566 1.34285 10.6217 0.5 8.5 0.5C6.37827 0.5 4.34344 1.34285 2.84315 2.84315C1.34285 4.34344 0.5 6.37827 0.5 8.5C0.5 10.6217 1.34285 12.6566 2.84315 14.1569C4.34344 15.6571 6.37827 16.5 8.5 16.5ZM12.207 7.207C12.3892 7.0184 12.49 6.7658 12.4877 6.5036C12.4854 6.2414 12.3802 5.99059 12.1948 5.80518C12.0094 5.61977 11.7586 5.5146 11.4964 5.51233C11.2342 5.51005 10.9816 5.61084 10.793 5.793L7.5 9.086L6.207 7.793C6.0184 7.61084 5.7658 7.51005 5.5036 7.51233C5.2414 7.5146 4.99059 7.61977 4.80518 7.80518C4.61977 7.99059 4.5146 8.2414 4.51233 8.5036C4.51005 8.7658 4.61084 9.0184 4.793 9.207L6.793 11.207C6.98053 11.3945 7.23484 11.4998 7.5 11.4998C7.76516 11.4998 8.01947 11.3945 8.207 11.207L12.207 7.207Z" fill="#4EC753"/>
</svg>
