<svg width="24" height="24" viewBox="0 0 24 24" fill="none" xmlns="http://www.w3.org/2000/svg">
<path d="M18.75 5.99999H16.425C16.0662 4.25518 14.5313 3.00225 12.75 3H11.25C9.46864 3.00225 7.93379 4.25518 7.57498 5.99999H5.24999C4.83578 5.99999 4.5 6.33577 4.5 6.74998C4.5 7.16419 4.83578 7.5 5.24999 7.5H5.99998V17.25C6.00247 19.32 7.67996 20.9975 9.75 21H14.25C16.32 20.9975 17.9975 19.32 18 17.25V7.5H18.75C19.1642 7.5 19.5 7.16422 19.5 6.75001C19.5 6.3358 19.1642 5.99999 18.75 5.99999ZM11.25 15.75C11.25 16.1642 10.9142 16.5 10.5 16.5C10.0858 16.5 9.75 16.1642 9.75 15.75V11.25C9.75 10.8358 10.0858 10.5 10.5 10.5C10.9142 10.5 11.25 10.8358 11.25 11.25V15.75H11.25ZM14.25 15.75C14.25 16.1642 13.9142 16.5 13.5 16.5C13.0858 16.5 12.75 16.1642 12.75 15.75V11.25C12.75 10.8358 13.0858 10.5 13.5 10.5C13.9142 10.5 14.25 10.8358 14.25 11.25V15.75ZM9.12826 5.99999C9.44727 5.10171 10.2968 4.50114 11.25 4.49998H12.75C13.7033 4.50114 14.5528 5.10171 14.8718 5.99999H9.12826Z" fill="#F44336"/>
</svg>
