<svg width="25" height="25" viewBox="0 0 25 25" fill="none" xmlns="http://www.w3.org/2000/svg">
<path d="M10.025 17.0001H5.75C4.63025 17.0001 3.5 16.1496 3.5 14.2507V10.4708C3.51577 8.74746 4.16107 7.08936 5.31438 5.80871C6.46769 4.52807 8.04944 3.71326 9.76175 3.51772C10.728 3.44757 11.6981 3.58625 12.606 3.92432C13.5139 4.2624 14.3384 4.79194 15.0234 5.47698C15.7085 6.16202 16.2381 6.98649 16.5761 7.89437C16.9142 8.80226 17.0529 9.77228 16.9827 10.7385C16.7869 12.4515 15.9714 14.0337 14.6898 15.1871C13.4083 16.3404 11.7491 16.9853 10.025 17.0001ZM18.5 10.3103H18.491C18.491 10.488 18.491 10.6658 18.482 10.8443C18.1925 14.9002 14.4852 18.3336 10.313 18.4858V18.4971C10.8385 19.4084 11.5943 20.1655 12.5047 20.6926C13.4151 21.2196 14.448 21.4981 15.5 21.5H19.25C19.8467 21.5 20.419 21.263 20.841 20.841C21.2629 20.4191 21.5 19.8468 21.5 19.2501V15.5002C21.4989 14.448 21.2212 13.4146 20.6946 12.5037C20.1681 11.5928 19.4112 10.8364 18.5 10.3103Z" fill="#1D283A"/>
</svg>
