<svg width="25" height="25" viewBox="0 0 25 25" fill="none" xmlns="http://www.w3.org/2000/svg">
<path d="M21.5 15.5002V19.2501C21.5 19.8468 21.2629 20.4191 20.841 20.841C20.419 21.263 19.8467 21.5 19.25 21.5H15.5C14.4478 21.4989 13.4144 21.2212 12.5035 20.6946C11.5925 20.1681 10.8361 19.4113 10.31 18.5001C10.8754 18.496 11.4389 18.4337 11.9915 18.3141C12.4124 18.8403 12.9462 19.2651 13.5536 19.5569C14.1609 19.8488 14.8262 20.0002 15.5 20H19.25C19.4489 20 19.6397 19.921 19.7803 19.7804C19.921 19.6397 20 19.449 20 19.2501V15.5002C19.9998 14.8261 19.8479 14.1607 19.5555 13.5534C19.2631 12.946 18.8378 12.4123 18.311 11.9917C18.4316 11.4392 18.495 10.8758 18.5 10.3103C19.4112 10.8364 20.1681 11.5928 20.6946 12.5037C21.2212 13.4146 21.4989 14.448 21.5 15.5002ZM16.9827 10.7385C17.0529 9.77228 16.9142 8.80226 16.5761 7.89437C16.2381 6.98649 15.7085 6.16202 15.0234 5.47698C14.3384 4.79194 13.5139 4.2624 12.606 3.92432C11.6981 3.58625 10.728 3.44757 9.76175 3.51772C8.04944 3.71326 6.46769 4.52807 5.31438 5.80871C4.16107 7.08936 3.51577 8.74746 3.5 10.4708V14.2507C3.5 16.1496 4.63025 17.0001 5.75 17.0001H10.025C11.7491 16.9853 13.4083 16.3404 14.6898 15.1871C15.9714 14.0337 16.7869 12.4515 16.9827 10.7385V10.7385ZM13.9625 6.53864C14.495 7.07225 14.9066 7.71401 15.1695 8.42048C15.4324 9.12695 15.5405 9.88166 15.4865 10.6335C15.3264 11.9713 14.6829 13.2043 13.677 14.1006C12.6711 14.997 11.3723 15.4947 10.025 15.5002H5.75C5.054 15.5002 5 14.5439 5 14.2507V10.4708C5.00625 9.1241 5.50449 7.82613 6.40094 6.82114C7.29739 5.81614 8.53025 5.17342 9.8675 5.01393C9.992 5.00493 10.1165 5.00043 10.241 5.00043C10.932 4.99978 11.6163 5.1353 12.2548 5.39923C12.8934 5.66317 13.4737 6.05035 13.9625 6.53864Z" fill="white"/>
</svg>
