<svg width="24" height="24" viewBox="0 0 24 24" fill="none" xmlns="http://www.w3.org/2000/svg">
<path d="M15.375 10.3125C15.375 10.1633 15.4343 10.0202 15.5398 9.91475C15.6452 9.80926 15.7883 9.75 15.9375 9.75H17.0625C17.2117 9.75 17.3548 9.80926 17.4602 9.91475C17.5657 10.0202 17.625 10.1633 17.625 10.3125V11.4375C17.625 11.5867 17.5657 11.7298 17.4602 11.8352C17.3548 11.9407 17.2117 12 17.0625 12H15.9375C15.7883 12 15.6452 11.9407 15.5398 11.8352C15.4343 11.7298 15.375 11.5867 15.375 11.4375V10.3125Z" fill="white"/>
<path d="M6.9375 3C7.08668 3 7.22976 3.05926 7.33525 3.16475C7.44074 3.27024 7.5 3.41332 7.5 3.5625V4.125H16.5V3.5625C16.5 3.41332 16.5593 3.27024 16.6648 3.16475C16.7702 3.05926 16.9133 3 17.0625 3C17.2117 3 17.3548 3.05926 17.4602 3.16475C17.5657 3.27024 17.625 3.41332 17.625 3.5625V4.125H18.75C19.3467 4.125 19.919 4.36205 20.341 4.78401C20.7629 5.20597 21 5.77826 21 6.375V18.75C21 19.3467 20.7629 19.919 20.341 20.341C19.919 20.7629 19.3467 21 18.75 21H5.25C4.65326 21 4.08097 20.7629 3.65901 20.341C3.23705 19.919 3 19.3467 3 18.75V6.375C3 5.77826 3.23705 5.20597 3.65901 4.78401C4.08097 4.36205 4.65326 4.125 5.25 4.125H6.375V3.5625C6.375 3.41332 6.43426 3.27024 6.53975 3.16475C6.64524 3.05926 6.78832 3 6.9375 3ZM4.125 7.5V18.75C4.125 19.0484 4.24353 19.3345 4.4545 19.5455C4.66548 19.7565 4.95163 19.875 5.25 19.875H18.75C19.0484 19.875 19.3345 19.7565 19.5455 19.5455C19.7565 19.3345 19.875 19.0484 19.875 18.75V7.5H4.125Z" fill="white"/>
</svg>
