<svg width="24" height="24" viewBox="0 0 24 24" fill="none" xmlns="http://www.w3.org/2000/svg">
<path d="M15.2105 11.0393C15.2629 11.0915 15.3044 11.1536 15.3328 11.2219C15.3611 11.2903 15.3757 11.3635 15.3757 11.4375C15.3757 11.5115 15.3611 11.5848 15.3328 11.6531C15.3044 11.7215 15.2629 11.7835 15.2105 11.8358L11.8355 15.2108C11.7832 15.2632 11.7212 15.3047 11.6528 15.3331C11.5845 15.3614 11.5112 15.376 11.4372 15.376C11.3632 15.376 11.29 15.3614 11.2216 15.3331C11.1533 15.3047 11.0912 15.2632 11.039 15.2108L9.35148 13.5233C9.29919 13.471 9.2577 13.4089 9.2294 13.3406C9.20109 13.2722 9.18652 13.199 9.18652 13.125C9.18652 13.0511 9.20109 12.9778 9.2294 12.9095C9.2577 12.8412 9.29919 12.7791 9.35148 12.7268C9.45711 12.6212 9.60036 12.5618 9.74973 12.5618C9.8237 12.5618 9.89693 12.5764 9.96527 12.6047C10.0336 12.633 10.0957 12.6745 10.148 12.7268L11.4372 14.0172L14.414 11.0393C14.4662 10.9869 14.5283 10.9453 14.5966 10.917C14.665 10.8886 14.7382 10.874 14.8122 10.874C14.8862 10.874 14.9595 10.8886 15.0278 10.917C15.0962 10.9453 15.1582 10.9869 15.2105 11.0393V11.0393Z" fill="#4EC753"/>
<path d="M6.9375 3C7.08668 3 7.22976 3.05926 7.33525 3.16475C7.44074 3.27024 7.5 3.41332 7.5 3.5625V4.125H16.5V3.5625C16.5 3.41332 16.5593 3.27024 16.6648 3.16475C16.7702 3.05926 16.9133 3 17.0625 3C17.2117 3 17.3548 3.05926 17.4602 3.16475C17.5657 3.27024 17.625 3.41332 17.625 3.5625V4.125H18.75C19.3467 4.125 19.919 4.36205 20.341 4.78401C20.7629 5.20597 21 5.77826 21 6.375V18.75C21 19.3467 20.7629 19.919 20.341 20.341C19.919 20.7629 19.3467 21 18.75 21H5.25C4.65326 21 4.08097 20.7629 3.65901 20.341C3.23705 19.919 3 19.3467 3 18.75V6.375C3 5.77826 3.23705 5.20597 3.65901 4.78401C4.08097 4.36205 4.65326 4.125 5.25 4.125H6.375V3.5625C6.375 3.41332 6.43426 3.27024 6.53975 3.16475C6.64524 3.05926 6.78832 3 6.9375 3V3ZM4.125 7.5V18.75C4.125 19.0484 4.24353 19.3345 4.4545 19.5455C4.66548 19.7565 4.95163 19.875 5.25 19.875H18.75C19.0484 19.875 19.3345 19.7565 19.5455 19.5455C19.7565 19.3345 19.875 19.0484 19.875 18.75V7.5H4.125Z" fill="#4EC753"/>
</svg>
