<svg width="24" height="24" viewBox="0 0 24 24" fill="none" xmlns="http://www.w3.org/2000/svg">
<path d="M9.91428 11.0393C9.96653 10.9869 10.0286 10.9453 10.0969 10.917C10.1653 10.8886 10.2385 10.874 10.3125 10.874C10.3865 10.874 10.4598 10.8886 10.5281 10.917C10.5965 10.9453 10.6585 10.9869 10.7108 11.0393L12 12.3297L13.2893 11.0393C13.3949 10.9337 13.5382 10.8743 13.6875 10.8743C13.8369 10.8743 13.9802 10.9337 14.0858 11.0393C14.1914 11.1449 14.2507 11.2882 14.2507 11.4375C14.2507 11.5869 14.1914 11.7302 14.0858 11.8358L12.7954 13.125L14.0858 14.4143C14.1914 14.5199 14.2507 14.6632 14.2507 14.8125C14.2507 14.9619 14.1914 15.1052 14.0858 15.2108C13.9802 15.3164 13.8369 15.3757 13.6875 15.3757C13.5382 15.3757 13.3949 15.3164 13.2893 15.2108L12 13.9204L10.7108 15.2108C10.6052 15.3164 10.4619 15.3757 10.3125 15.3757C10.1632 15.3757 10.0199 15.3164 9.91428 15.2108C9.80866 15.1052 9.74932 14.9619 9.74932 14.8125C9.74932 14.6632 9.80866 14.5199 9.91428 14.4143L11.2047 13.125L9.91428 11.8358C9.86189 11.7835 9.82033 11.7215 9.79198 11.6531C9.76362 11.5848 9.74902 11.5115 9.74902 11.4375C9.74902 11.3635 9.76362 11.2903 9.79198 11.2219C9.82033 11.1536 9.86189 11.0915 9.91428 11.0393Z" fill="#F44336"/>
<path d="M6.9375 3C7.08668 3 7.22976 3.05926 7.33525 3.16475C7.44074 3.27024 7.5 3.41332 7.5 3.5625V4.125H16.5V3.5625C16.5 3.41332 16.5593 3.27024 16.6648 3.16475C16.7702 3.05926 16.9133 3 17.0625 3C17.2117 3 17.3548 3.05926 17.4602 3.16475C17.5657 3.27024 17.625 3.41332 17.625 3.5625V4.125H18.75C19.3467 4.125 19.919 4.36205 20.341 4.78401C20.7629 5.20597 21 5.77826 21 6.375V18.75C21 19.3467 20.7629 19.919 20.341 20.341C19.919 20.7629 19.3467 21 18.75 21H5.25C4.65326 21 4.08097 20.7629 3.65901 20.341C3.23705 19.919 3 19.3467 3 18.75V6.375C3 5.77826 3.23705 5.20597 3.65901 4.78401C4.08097 4.36205 4.65326 4.125 5.25 4.125H6.375V3.5625C6.375 3.41332 6.43426 3.27024 6.53975 3.16475C6.64524 3.05926 6.78832 3 6.9375 3V3ZM4.125 7.5V18.75C4.125 19.0484 4.24353 19.3345 4.4545 19.5455C4.66548 19.7565 4.95163 19.875 5.25 19.875H18.75C19.0484 19.875 19.3345 19.7565 19.5455 19.5455C19.7565 19.3345 19.875 19.0484 19.875 18.75V7.5H4.125Z" fill="#F44336"/>
</svg>
