<svg width="24" height="24" viewBox="0 0 24 24" fill="none" xmlns="http://www.w3.org/2000/svg">
<path d="M12 3C9.78413 3.00158 7.6471 3.82247 6 5.30475V3.75C6 3.55109 5.92098 3.36032 5.78033 3.21967C5.63968 3.07902 5.44891 3 5.25 3C5.05109 3 4.86032 3.07902 4.71967 3.21967C4.57902 3.36032 4.5 3.55109 4.5 3.75V6C4.5 6.59674 4.73705 7.16903 5.15901 7.59099C5.58097 8.01295 6.15326 8.25 6.75 8.25H9C9.19891 8.25 9.38968 8.17098 9.53033 8.03033C9.67098 7.88968 9.75 7.69891 9.75 7.5C9.75 7.30109 9.67098 7.11032 9.53033 6.96967C9.38968 6.82902 9.19891 6.75 9 6.75H6.75C6.72471 6.74625 6.69966 6.74099 6.675 6.73425C7.89714 5.50337 9.50859 4.73481 11.2343 4.55975C12.96 4.38469 14.693 4.81399 16.1374 5.77437C17.5818 6.73475 18.6482 8.16667 19.1544 9.82571C19.6606 11.4848 19.5754 13.2681 18.9132 14.8713C18.251 16.4744 17.0529 17.7981 15.5235 18.6163C13.994 19.4345 12.228 19.6965 10.5269 19.3577C8.82573 19.0188 7.29494 18.1 6.19579 16.7581C5.09664 15.4163 4.49728 13.7346 4.5 12C4.5 11.8011 4.42098 11.6103 4.28033 11.4697C4.13968 11.329 3.94891 11.25 3.75 11.25C3.55109 11.25 3.36032 11.329 3.21967 11.4697C3.07902 11.6103 3 11.8011 3 12C3 13.78 3.52784 15.5201 4.51677 17.0001C5.50571 18.4802 6.91131 19.6337 8.55585 20.3149C10.2004 20.9961 12.01 21.1743 13.7558 20.8271C15.5016 20.4798 17.1053 19.6226 18.364 18.364C19.6226 17.1053 20.4798 15.5016 20.8271 13.7558C21.1743 12.01 20.9961 10.2004 20.3149 8.55585C19.6337 6.91131 18.4802 5.50571 17.0001 4.51677C15.5201 3.52784 13.78 3 12 3V3Z" fill="white"/>
<path d="M12 7.5C11.8011 7.5 11.6103 7.57902 11.4697 7.71967C11.329 7.86032 11.25 8.05109 11.25 8.25V12C11.25 12.1989 11.3291 12.3896 11.4698 12.5302L13.7197 14.7802C13.8612 14.9169 14.0507 14.9925 14.2473 14.9908C14.4439 14.989 14.6321 14.9102 14.7711 14.7711C14.9102 14.6321 14.989 14.4439 14.9908 14.2473C14.9925 14.0507 14.9169 13.8612 14.7802 13.7197L12.75 11.6895V8.25C12.75 8.05109 12.671 7.86032 12.5303 7.71967C12.3897 7.57902 12.1989 7.5 12 7.5Z" fill="white"/>
</svg>
