<svg width="24" height="24" viewBox="0 0 24 24" fill="none" xmlns="http://www.w3.org/2000/svg">
<path d="M12 14.1206C10.7574 14.1206 9.75 15.0726 9.75 16.2469V20.4996H14.25V16.2469C14.25 15.0726 13.2426 14.1206 12 14.1206Z" fill="#1D283A"/>
<path d="M15.75 16.2474V20.5H18.75C19.9926 20.5 21 19.548 21 18.3737V11.909C21.0002 11.5407 20.8488 11.1869 20.5777 10.9223L14.2043 4.4108C13.0797 3.26093 11.1817 3.19033 9.96491 4.25309C9.90711 4.30359 9.85143 4.35618 9.79802 4.4108L3.43576 10.9202C3.15655 11.1859 2.99989 11.5452 3 11.9196V18.3737C3 19.548 4.00737 20.5 5.25 20.5H8.24999V16.2474C8.26402 14.3147 9.9152 12.7364 11.9088 12.6909C13.9691 12.644 15.7343 14.2491 15.75 16.2474Z" fill="#1D283A"/>
<path d="M12 14.1206C10.7574 14.1206 9.75 15.0726 9.75 16.2469V20.4996H14.25V16.2469C14.25 15.0726 13.2426 14.1206 12 14.1206Z" fill="#1D283A"/>
</svg>
