<svg width="25" height="25" viewBox="0 0 25 25" fill="none" xmlns="http://www.w3.org/2000/svg">
<path d="M4.5 12.5L6.27778 10.7222M6.27778 10.7222L12.5 4.5L18.7222 10.7222M6.27778 10.7222V19.6111C6.27778 19.8469 6.37143 20.073 6.53813 20.2397C6.70483 20.4064 6.93092 20.5 7.16667 20.5H9.83333M18.7222 10.7222L20.5 12.5M18.7222 10.7222V19.6111C18.7222 19.8469 18.6286 20.073 18.4619 20.2397C18.2952 20.4064 18.0691 20.5 17.8333 20.5H15.1667M9.83333 20.5C10.0691 20.5 10.2952 20.4064 10.4619 20.2397C10.6286 20.073 10.7222 19.8469 10.7222 19.6111V16.0556C10.7222 15.8198 10.8159 15.5937 10.9826 15.427C11.1493 15.2603 11.3754 15.1667 11.6111 15.1667H13.3889C13.6246 15.1667 13.8507 15.2603 14.0174 15.427C14.1841 15.5937 14.2778 15.8198 14.2778 16.0556V19.6111C14.2778 19.8469 14.3714 20.073 14.5381 20.2397C14.7048 20.4064 14.9309 20.5 15.1667 20.5M9.83333 20.5H15.1667" stroke="white" stroke-width="1.5" stroke-linecap="round" stroke-linejoin="round"/>
</svg>
