<svg width="24" height="24" viewBox="0 0 24 24" fill="none" xmlns="http://www.w3.org/2000/svg">
<path d="M20.3407 9.91258L14.652 4.53594C13.9479 3.87253 12.9942 3.5 12 3.5C11.0058 3.5 10.0521 3.87253 9.348 4.53594L3.65926 9.91258C3.44958 10.1095 3.28334 10.3437 3.17017 10.6018C3.05701 10.8598 2.99917 11.1365 3.00001 11.4159V18.3737C3.00001 18.9376 3.23706 19.4785 3.65902 19.8772C4.08097 20.276 4.65327 20.5 5.25001 20.5H18.75C19.3467 20.5 19.919 20.276 20.341 19.8772C20.7629 19.4785 21 18.9376 21 18.3737V11.4159C21.0008 11.1365 20.943 10.8598 20.8298 10.6018C20.7167 10.3437 20.5504 10.1095 20.3407 9.91258ZM14.25 19.0825H9.75V16.2942C9.75 15.7303 9.98705 15.1895 10.409 14.7907C10.831 14.392 11.4033 14.168 12 14.168C12.5967 14.168 13.169 14.392 13.591 14.7907C14.0129 15.1895 14.25 15.7303 14.25 16.2942V19.0825ZM19.5 18.3737C19.5 18.5617 19.421 18.742 19.2803 18.8749C19.1397 19.0078 18.9489 19.0825 18.75 19.0825H15.75V16.2942C15.75 15.3544 15.3549 14.453 14.6516 13.7884C13.9484 13.1238 12.9946 12.7504 12 12.7504C11.0054 12.7504 10.0516 13.1238 9.34835 13.7884C8.64509 14.453 8.25 15.3544 8.25 16.2942V19.0825H5.25001C5.05109 19.0825 4.86033 19.0078 4.71968 18.8749C4.57903 18.742 4.50001 18.5617 4.50001 18.3737V11.4159C4.5007 11.228 4.57965 11.048 4.71976 10.9148L10.4085 5.54025C10.8313 5.14259 11.4035 4.91934 12 4.91934C12.5965 4.91934 13.1687 5.14259 13.5915 5.54025L19.2802 10.9169C19.4198 11.0496 19.4987 11.2288 19.5 11.4159V18.3737Z" fill="white"/>
</svg>
