<svg width="24" height="24" viewBox="0 0 24 24" fill="none" xmlns="http://www.w3.org/2000/svg">
<path d="M12 7.5C11.4033 7.5 10.831 7.73705 10.409 8.15901C9.98705 8.58097 9.75 9.15326 9.75 9.75V18.75C9.75 19.3467 9.98705 19.919 10.409 20.341C10.831 20.7629 11.4033 21 12 21C12.5967 21 13.169 20.7629 13.591 20.341C14.0129 19.919 14.25 19.3467 14.25 18.75V9.75C14.25 9.15326 14.0129 8.58097 13.591 8.15901C13.169 7.73705 12.5967 7.5 12 7.5Z" fill="#0CA6E9"/>
<path d="M18.75 3C18.1533 3 17.581 3.23705 17.159 3.65901C16.7371 4.08097 16.5 4.65326 16.5 5.25V18.75C16.5 19.3467 16.7371 19.919 17.159 20.341C17.581 20.7629 18.1533 21 18.75 21C19.3467 21 19.919 20.7629 20.341 20.341C20.7629 19.919 21 19.3467 21 18.75V5.25C21 4.65326 20.7629 4.08097 20.341 3.65901C19.919 3.23705 19.3467 3 18.75 3V3Z" fill="#0CA6E9"/>
<path d="M5.25 12C4.65326 12 4.08097 12.2371 3.65901 12.659C3.23705 13.081 3 13.6533 3 14.25L3 18.75C3 19.3467 3.23705 19.919 3.65901 20.341C4.08097 20.7629 4.65326 21 5.25 21C5.84674 21 6.41903 20.7629 6.84099 20.341C7.26295 19.919 7.5 19.3467 7.5 18.75V14.25C7.5 13.6533 7.26295 13.081 6.84099 12.659C6.41903 12.2371 5.84674 12 5.25 12Z" fill="#0CA6E9"/>
</svg>
