<svg width="25" height="25" viewBox="0 0 25 25" fill="none" xmlns="http://www.w3.org/2000/svg">
<path d="M18.1 9.818V8.75C18.1 7.35761 17.51 6.02226 16.4598 5.03769C15.4096 4.05312 13.9852 3.5 12.5 3.5C11.0148 3.5 9.59041 4.05312 8.5402 5.03769C7.49 6.02226 6.9 7.35761 6.9 8.75V9.818C6.18749 10.1095 5.58103 10.5894 5.1548 11.1989C4.72856 11.8084 4.50102 12.5212 4.5 13.25V17.75C4.50127 18.7442 4.92311 19.6973 5.67298 20.4003C6.42285 21.1033 7.43952 21.4988 8.5 21.5H16.5C17.5605 21.4988 18.5772 21.1033 19.327 20.4003C20.0769 19.6973 20.4987 18.7442 20.5 17.75V13.25C20.499 12.5212 20.2714 11.8084 19.8452 11.1989C19.419 10.5894 18.8125 10.1095 18.1 9.818V9.818ZM8.5 8.75C8.5 7.75544 8.92143 6.80161 9.67157 6.09835C10.4217 5.39509 11.4391 5 12.5 5C13.5609 5 14.5783 5.39509 15.3284 6.09835C16.0786 6.80161 16.5 7.75544 16.5 8.75V9.5H8.5V8.75ZM18.9 17.75C18.9 18.3467 18.6471 18.919 18.1971 19.341C17.747 19.7629 17.1365 20 16.5 20H8.5C7.86348 20 7.25303 19.7629 6.80294 19.341C6.35286 18.919 6.1 18.3467 6.1 17.75V13.25C6.1 12.6533 6.35286 12.081 6.80294 11.659C7.25303 11.2371 7.86348 11 8.5 11H16.5C17.1365 11 17.747 11.2371 18.1971 11.659C18.6471 12.081 18.9 12.6533 18.9 13.25V17.75Z" fill="white"/>
<path d="M12.5002 13.9995C12.288 13.9995 12.0845 14.0785 11.9345 14.2192C11.7845 14.3598 11.7002 14.5506 11.7002 14.7495V16.2495C11.7002 16.4484 11.7845 16.6392 11.9345 16.7798C12.0845 16.9205 12.288 16.9995 12.5002 16.9995C12.7124 16.9995 12.9159 16.9205 13.0659 16.7798C13.2159 16.6392 13.3002 16.4484 13.3002 16.2495V14.7495C13.3002 14.5506 13.2159 14.3598 13.0659 14.2192C12.9159 14.0785 12.7124 13.9995 12.5002 13.9995Z" fill="white"/>
</svg>
