<svg width="24" height="24" viewBox="0 0 24 24" fill="none" xmlns="http://www.w3.org/2000/svg">
<path d="M20.1244 9.87857L17.2147 6.96932C17.0732 6.8327 16.8837 6.75711 16.687 6.75882C16.4904 6.76053 16.3022 6.8394 16.1631 6.97846C16.0241 7.11752 15.9452 7.30562 15.9435 7.50227C15.9418 7.69892 16.0174 7.88837 16.154 8.02982L19.0637 10.9391C19.1502 11.0272 19.2257 11.1254 19.2888 11.2316C19.2775 11.2316 19.2685 11.2256 19.2573 11.2256L7.49231 11.2496C7.29337 11.2496 7.10257 11.3286 6.96189 11.4692C6.82122 11.6099 6.74219 11.8007 6.74219 11.9996C6.74219 12.1985 6.82122 12.3893 6.96189 12.5299C7.10257 12.6706 7.29337 12.7496 7.49231 12.7496L19.2528 12.7256C19.2738 12.7256 19.291 12.7151 19.3113 12.7136C19.2447 12.8404 19.1604 12.9571 19.0607 13.0601L16.151 15.9693C16.0794 16.0385 16.0222 16.1213 15.9829 16.2128C15.9436 16.3043 15.9229 16.4027 15.922 16.5023C15.9212 16.6019 15.9401 16.7006 15.9779 16.7928C16.0156 16.885 16.0713 16.9687 16.1417 17.0391C16.2121 17.1095 16.2959 17.1652 16.3881 17.2029C16.4803 17.2406 16.579 17.2596 16.6786 17.2588C16.7782 17.2579 16.8767 17.2372 16.9682 17.1979C17.0597 17.1586 17.1425 17.1015 17.2117 17.0298L20.1214 14.1206C20.6839 13.558 20.9999 12.7951 20.9999 11.9996C20.9999 11.2041 20.6839 10.4412 20.1214 9.87857H20.1244Z" fill="white"/>
<path d="M8.25087 19.5H6.75062C6.15379 19.5 5.5814 19.2629 5.15937 18.841C4.73734 18.419 4.50025 17.8467 4.50025 17.25V6.75C4.50025 6.15326 4.73734 5.58097 5.15937 5.15901C5.5814 4.73705 6.15379 4.5 6.75062 4.5H8.25087C8.44982 4.5 8.64062 4.42098 8.78129 4.28033C8.92197 4.13968 9.001 3.94891 9.001 3.75C9.001 3.55109 8.92197 3.36032 8.78129 3.21967C8.64062 3.07902 8.44982 3 8.25087 3H6.75062C5.75626 3.00119 4.80297 3.39666 4.09985 4.09966C3.39673 4.80267 3.00119 5.7558 3 6.75L3 17.25C3.00119 18.2442 3.39673 19.1973 4.09985 19.9003C4.80297 20.6033 5.75626 20.9988 6.75062 21H8.25087C8.44982 21 8.64062 20.921 8.78129 20.7803C8.92197 20.6397 9.001 20.4489 9.001 20.25C9.001 20.0511 8.92197 19.8603 8.78129 19.7197C8.64062 19.579 8.44982 19.5 8.25087 19.5Z" fill="white"/>
</svg>
