<svg width="25" height="25" viewBox="0 0 25 25" fill="none" xmlns="http://www.w3.org/2000/svg">
<path d="M16.25 14C16.25 14.1989 16.171 14.3897 16.0303 14.5303C15.8897 14.671 15.6989 14.75 15.5 14.75H9.49999C9.30108 14.75 9.11032 14.671 8.96967 14.5303C8.82901 14.3897 8.75 14.1989 8.75 14C8.75 13.8011 8.82901 13.6103 8.96967 13.4697C9.11032 13.329 9.30108 13.25 9.49999 13.25H15.5C15.6989 13.25 15.8897 13.329 16.0303 13.4697C16.171 13.6103 16.25 13.8011 16.25 14ZM13.25 16.25H9.49999C9.30108 16.25 9.11032 16.329 8.96967 16.4697C8.82901 16.6103 8.75 16.8011 8.75 17C8.75 17.1989 8.82901 17.3897 8.96967 17.5303C9.11032 17.671 9.30108 17.75 9.49999 17.75H13.25C13.4489 17.75 13.6397 17.671 13.7803 17.5303C13.921 17.3897 14 17.1989 14 17C14 16.8011 13.921 16.6103 13.7803 16.4697C13.6397 16.329 13.4489 16.25 13.25 16.25ZM20 11.3638V17.75C19.9988 18.7442 19.6033 19.6973 18.9003 20.4003C18.1973 21.1033 17.2442 21.4988 16.25 21.5H8.75C7.7558 21.4988 6.80267 21.1033 6.09966 20.4003C5.39666 19.6973 5.00119 18.7442 5 17.75V7.25001C5.00119 6.25582 5.39666 5.30268 6.09966 4.59968C6.80267 3.89668 7.7558 3.50121 8.75 3.50002H12.1362C12.826 3.49824 13.5092 3.63321 14.1464 3.89711C14.7836 4.16101 15.3622 4.54862 15.8487 5.03752L18.4617 7.65201C18.9509 8.13819 19.3388 8.71661 19.6028 9.35374C19.8668 9.99088 20.0018 10.6741 20 11.3638V11.3638ZM14.7882 6.09801C14.5522 5.86939 14.2872 5.67271 14 5.51302V8.75001C14 8.94892 14.079 9.13969 14.2197 9.28034C14.3603 9.42099 14.5511 9.50001 14.75 9.50001H17.987C17.8272 9.2129 17.6303 8.94812 17.4012 8.71251L14.7882 6.09801ZM18.5 11.3638C18.5 11.24 18.476 11.1215 18.4647 11H14.75C14.1533 11 13.581 10.763 13.159 10.341C12.737 9.91904 12.5 9.34675 12.5 8.75001V5.03527C12.3785 5.02402 12.2592 5.00002 12.1362 5.00002H8.75C8.15326 5.00002 7.58096 5.23707 7.15901 5.65903C6.73705 6.08098 6.5 6.65328 6.5 7.25001V17.75C6.5 18.3467 6.73705 18.919 7.15901 19.341C7.58096 19.7629 8.15326 20 8.75 20H16.25C16.8467 20 17.419 19.7629 17.841 19.341C18.2629 18.919 18.5 18.3467 18.5 17.75V11.3638Z" fill="white"/>
</svg>
