<svg width="25" height="25" viewBox="0 0 25 25" fill="none" xmlns="http://www.w3.org/2000/svg">
<path d="M14 8.75V3.845C14.6938 4.107 15.324 4.51348 15.8488 5.0375L18.4617 7.652C18.9864 8.17616 19.3932 8.80617 19.655 9.5H14.75C14.5511 9.5 14.3603 9.42098 14.2197 9.28033C14.079 9.13968 14 8.94891 14 8.75ZM20 11.3637V17.75C19.9988 18.7442 19.6033 19.6973 18.9003 20.4003C18.1973 21.1033 17.2442 21.4988 16.25 21.5H8.75C7.7558 21.4988 6.80267 21.1033 6.09966 20.4003C5.39666 19.6973 5.00119 18.7442 5 17.75V7.25C5.00119 6.2558 5.39666 5.30267 6.09966 4.59966C6.80267 3.89666 7.7558 3.50119 8.75 3.5L12.1363 3.5C12.2585 3.5 12.3793 3.50975 12.5 3.518V8.75C12.5 9.34674 12.7371 9.91903 13.159 10.341C13.581 10.7629 14.1533 11 14.75 11H19.982C19.9902 11.1207 20 11.2415 20 11.3637ZM14 17.75C14 17.5511 13.921 17.3603 13.7803 17.2197C13.6397 17.079 13.4489 17 13.25 17H9.5C9.30109 17 9.11032 17.079 8.96967 17.2197C8.82902 17.3603 8.75 17.5511 8.75 17.75C8.75 17.9489 8.82902 18.1397 8.96967 18.2803C9.11032 18.421 9.30109 18.5 9.5 18.5H13.25C13.4489 18.5 13.6397 18.421 13.7803 18.2803C13.921 18.1397 14 17.9489 14 17.75ZM16.25 14.75C16.25 14.5511 16.171 14.3603 16.0303 14.2197C15.8897 14.079 15.6989 14 15.5 14H9.5C9.30109 14 9.11032 14.079 8.96967 14.2197C8.82902 14.3603 8.75 14.5511 8.75 14.75C8.75 14.9489 8.82902 15.1397 8.96967 15.2803C9.11032 15.421 9.30109 15.5 9.5 15.5H15.5C15.6989 15.5 15.8897 15.421 16.0303 15.2803C16.171 15.1397 16.25 14.9489 16.25 14.75Z" fill="#1D283A"/>
</svg>
