<svg width="25" height="25" viewBox="0 0 25 25" fill="none" xmlns="http://www.w3.org/2000/svg">
<path d="M20 17.132V16.9942C19.9988 16.0007 19.6033 15.0483 18.9003 14.3459C18.1973 13.6434 17.2442 13.2482 16.25 13.247H13.25V12.4302C14.3625 12.2423 15.3639 11.6436 16.0555 10.7528C16.7471 9.86195 17.0786 8.74402 16.9842 7.6205C16.8899 6.49699 16.3766 5.4499 15.546 4.68673C14.7155 3.92355 13.6283 3.5 12.5 3.5C11.3717 3.5 10.2845 3.92355 9.45397 4.68673C8.62343 5.4499 8.11012 6.49699 8.01577 7.6205C7.92141 8.74402 8.25289 9.86195 8.94452 10.7528C9.63615 11.6436 10.6375 12.2423 11.75 12.4302V13.247H8.75C7.75581 13.2482 6.80267 13.6434 6.09967 14.3459C5.39667 15.0483 5.00119 16.0007 5 16.9942V17.132C4.49959 17.3088 4.07784 17.6567 3.80928 18.1142C3.54072 18.5716 3.44265 19.1092 3.53241 19.6319C3.62216 20.1546 3.89396 20.6288 4.29976 20.9707C4.70556 21.3125 5.21924 21.5 5.75 21.5C6.28077 21.5 6.79445 21.3125 7.20025 20.9707C7.60605 20.6288 7.87785 20.1546 7.9676 19.6319C8.05735 19.1092 7.95928 18.5716 7.69073 18.1142C7.42217 17.6567 7.00041 17.3088 6.5 17.132V16.9942C6.5 16.3979 6.73706 15.826 7.15901 15.4044C7.58097 14.9828 8.15327 14.7459 8.75 14.7459H11.75V17.132C11.2496 17.3088 10.8278 17.6567 10.5593 18.1142C10.2907 18.5716 10.1927 19.1092 10.2824 19.6319C10.3722 20.1546 10.644 20.6288 11.0498 20.9707C11.4556 21.3125 11.9692 21.5 12.5 21.5C13.0308 21.5 13.5444 21.3125 13.9502 20.9707C14.356 20.6288 14.6278 20.1546 14.7176 19.6319C14.8073 19.1092 14.7093 18.5716 14.4407 18.1142C14.1722 17.6567 13.7504 17.3088 13.25 17.132V14.7459H16.25C16.8467 14.7459 17.419 14.9828 17.841 15.4044C18.2629 15.826 18.5 16.3979 18.5 16.9942V17.132C17.9996 17.3088 17.5778 17.6567 17.3093 18.1142C17.0407 18.5716 16.9426 19.1092 17.0324 19.6319C17.1222 20.1546 17.394 20.6288 17.7998 20.9707C18.2056 21.3125 18.7192 21.5 19.25 21.5C19.7808 21.5 20.2944 21.3125 20.7002 20.9707C21.106 20.6288 21.3778 20.1546 21.4676 19.6319C21.5573 19.1092 21.4593 18.5716 21.1907 18.1142C20.9222 17.6567 20.5004 17.3088 20 17.132Z" fill="#1D283A"/>
</svg>
