<svg width="25" height="25" viewBox="0 0 25 25" fill="none" xmlns="http://www.w3.org/2000/svg">
<path d="M19.8032 15.7986C19.5513 15.0562 19.0733 14.4111 18.4362 13.9538C17.7991 13.4966 17.0349 13.2501 16.2506 13.2489H13.2501V12.436C14.3629 12.248 15.3643 11.6489 16.0561 10.7575C16.7478 9.86612 17.0794 8.74746 16.985 7.62321C16.8906 6.49896 16.3772 5.45118 15.5465 4.68751C14.7159 3.92383 13.6285 3.5 12.5 3.5C11.3715 3.5 10.2841 3.92383 9.45346 4.68751C8.62278 5.45118 8.10938 6.49896 8.015 7.62321C7.92063 8.74746 8.25217 9.86612 8.94391 10.7575C9.63566 11.6489 10.6371 12.248 11.7499 12.436V13.2489H8.74936C7.9651 13.2501 7.20087 13.4966 6.56378 13.9538C5.92669 14.4111 5.44868 15.0562 5.19676 15.7986C4.55322 16.109 4.0416 16.6388 3.75393 17.2927C3.46626 17.9465 3.42143 18.6815 3.62751 19.3655C3.83359 20.0494 4.27704 20.6374 4.8781 21.0237C5.47915 21.4099 6.19835 21.569 6.9063 21.4724C7.61425 21.3758 8.26448 21.0298 8.74001 20.4967C9.21554 19.9636 9.48515 19.2783 9.50034 18.5641C9.51553 17.85 9.27531 17.1538 8.82288 16.601C8.37045 16.0481 7.73552 15.6748 7.03232 15.5482C7.24321 15.2982 7.50608 15.0971 7.80262 14.9591C8.09916 14.821 8.42224 14.7492 8.74936 14.7488H11.7499V15.5939C11.0428 15.7764 10.4265 16.2105 10.0166 16.8148C9.60675 17.419 9.43139 18.152 9.52341 18.8763C9.61543 19.6006 9.96852 20.2664 10.5165 20.7491C11.0645 21.2317 11.7697 21.498 12.5 21.498C13.2303 21.498 13.9355 21.2317 14.4835 20.7491C15.0315 20.2664 15.3846 19.6006 15.4766 18.8763C15.5686 18.152 15.3933 17.419 14.9834 16.8148C14.5735 16.2105 13.9572 15.7764 13.2501 15.5939V14.7488H16.2506C16.5776 14.749 16.9006 14.8204 17.1971 14.9581C17.4936 15.0957 17.7566 15.2963 17.9677 15.5459C17.2645 15.6725 16.6295 16.0458 16.1771 16.5987C15.7247 17.1516 15.4845 17.8477 15.4997 18.5619C15.5149 19.276 15.7845 19.9613 16.26 20.4944C16.7355 21.0276 17.3858 21.3736 18.0937 21.4702C18.8017 21.5668 19.5208 21.4077 20.1219 21.0214C20.723 20.6352 21.1664 20.0472 21.3725 19.3632C21.5786 18.6793 21.5337 17.9443 21.2461 17.2904C20.9584 16.6365 20.4468 16.1068 19.8032 15.7964V15.7986ZM9.49949 7.99954C9.49949 7.40627 9.67547 6.82631 10.0052 6.33302C10.3349 5.83973 10.8035 5.45526 11.3518 5.22822C11.9 5.00119 12.5033 4.94178 13.0854 5.05753C13.6674 5.17327 14.2021 5.45896 14.6217 5.87847C15.0413 6.29798 15.3271 6.83246 15.4429 7.41434C15.5586 7.99622 15.4992 8.59935 15.2721 9.14746C15.045 9.69558 14.6604 10.1641 14.167 10.4937C13.6736 10.8233 13.0934 10.9992 12.5 10.9992C11.7042 10.9992 10.941 10.6832 10.3783 10.1206C9.81562 9.55808 9.49949 8.7951 9.49949 7.99954ZM7.99924 18.4983C7.99924 18.795 7.91125 19.085 7.7464 19.3316C7.58155 19.5782 7.34724 19.7705 7.07311 19.884C6.79897 19.9975 6.49732 20.0272 6.2063 19.9693C5.91528 19.9115 5.64796 19.7686 5.43814 19.5589C5.22833 19.3491 5.08544 19.0819 5.02756 18.7909C4.96967 18.5 4.99938 18.1984 5.11293 17.9244C5.22648 17.6503 5.41877 17.4161 5.66549 17.2513C5.9122 17.0865 6.20226 16.9985 6.49898 16.9985C6.89688 16.9985 7.27847 17.1565 7.55982 17.4378C7.84118 17.7191 7.99924 18.1006 7.99924 18.4983ZM14.0003 18.4983C14.0003 18.795 13.9123 19.085 13.7474 19.3316C13.5826 19.5782 13.3483 19.7705 13.0741 19.884C12.8 19.9975 12.4983 20.0272 12.2073 19.9693C11.9163 19.9115 11.649 19.7686 11.4392 19.5589C11.2293 19.3491 11.0865 19.0819 11.0286 18.7909C10.9707 18.5 11.0004 18.1984 11.1139 17.9244C11.2275 17.6503 11.4198 17.4161 11.6665 17.2513C11.9132 17.0865 12.2033 16.9985 12.5 16.9985C12.8979 16.9985 13.2795 17.1565 13.5608 17.4378C13.8422 17.7191 14.0003 18.1006 14.0003 18.4983ZM18.501 19.9982C18.2043 19.9982 17.9142 19.9102 17.6675 19.7454C17.4208 19.5806 17.2285 19.3464 17.115 19.0723C17.0014 18.7982 16.9717 18.4967 17.0296 18.2057C17.0875 17.9148 17.2304 17.6476 17.4402 17.4378C17.65 17.228 17.9173 17.0852 18.2083 17.0273C18.4994 16.9695 18.801 16.9992 19.0751 17.1127C19.3493 17.2262 19.5836 17.4184 19.7484 17.6651C19.9133 17.9117 20.0013 18.2017 20.0013 18.4983C20.0013 18.8961 19.8432 19.2776 19.5619 19.5589C19.2805 19.8401 18.8989 19.9982 18.501 19.9982Z" fill="white"/>
</svg>
