<svg width="24" height="24" viewBox="0 0 24 24" fill="none" xmlns="http://www.w3.org/2000/svg">
<path fill-rule="evenodd" clip-rule="evenodd" d="M3 6.28571C3 5.67951 3.23705 5.09812 3.65901 4.66947C4.08097 4.24082 4.65326 4 5.25 4H18.75C19.3467 4 19.919 4.24082 20.341 4.66947C20.7629 5.09812 21 5.67951 21 6.28571V17.7143C21 18.3205 20.7629 18.9019 20.341 19.3305C19.919 19.7592 19.3467 20 18.75 20H5.25C4.65326 20 4.08097 19.7592 3.65901 19.3305C3.23705 18.9019 3 18.3205 3 17.7143V6.28571ZM6.70463 7.76343C6.91559 7.54918 7.20169 7.42882 7.5 7.42882C7.79831 7.42882 8.08441 7.54918 8.29537 7.76343L11.6704 11.192C11.8813 11.4063 11.9998 11.697 11.9998 12C11.9998 12.303 11.8813 12.5937 11.6704 12.808L8.29537 16.2366C8.0832 16.4448 7.79902 16.5599 7.50405 16.5573C7.20908 16.5547 6.92691 16.4345 6.71833 16.2227C6.50975 16.0108 6.39143 15.7241 6.38887 15.4245C6.3863 15.1248 6.4997 14.8361 6.70463 14.6206L9.28425 12L6.70463 9.37943C6.49372 9.16511 6.37524 8.87447 6.37524 8.57143C6.37524 8.26838 6.49372 7.97775 6.70463 7.76343V7.76343ZM13.125 14.2857C12.8266 14.2857 12.5405 14.4061 12.3295 14.6205C12.1185 14.8348 12 15.1255 12 15.4286C12 15.7317 12.1185 16.0224 12.3295 16.2367C12.5405 16.451 12.8266 16.5714 13.125 16.5714H16.5C16.7984 16.5714 17.0845 16.451 17.2955 16.2367C17.5065 16.0224 17.625 15.7317 17.625 15.4286C17.625 15.1255 17.5065 14.8348 17.2955 14.6205C17.0845 14.4061 16.7984 14.2857 16.5 14.2857H13.125Z" fill="white"/>
</svg>
