<svg width="25" height="25" viewBox="0 0 25 25" fill="none" xmlns="http://www.w3.org/2000/svg">
<path d="M17.75 4.5H7.25C6.2558 4.50115 5.30267 4.88464 4.59966 5.56634C3.89666 6.24804 3.50119 7.17229 3.5 8.13636L3.5 13.9545C3.50119 14.9186 3.89666 15.8429 4.59966 16.5246C5.30267 17.2063 6.2558 17.5898 7.25 17.5909H11.75V19.0455H8.75C8.55109 19.0455 8.36032 19.1221 8.21967 19.2585C8.07902 19.3949 8 19.5798 8 19.7727C8 19.9656 8.07902 20.1506 8.21967 20.287C8.36032 20.4234 8.55109 20.5 8.75 20.5H16.25C16.4489 20.5 16.6397 20.4234 16.7803 20.287C16.921 20.1506 17 19.9656 17 19.7727C17 19.5798 16.921 19.3949 16.7803 19.2585C16.6397 19.1221 16.4489 19.0455 16.25 19.0455H13.25V17.5909H17.75C18.7442 17.5898 19.6973 17.2063 20.4003 16.5246C21.1033 15.8429 21.4988 14.9186 21.5 13.9545V8.13636C21.4988 7.17229 21.1033 6.24804 20.4003 5.56634C19.6973 4.88464 18.7442 4.50115 17.75 4.5ZM7.25 5.95455H17.75C18.3467 5.95455 18.919 6.18441 19.341 6.59359C19.7629 7.00276 20 7.55771 20 8.13636V13.2273H5V8.13636C5 7.55771 5.23705 7.00276 5.65901 6.59359C6.08097 6.18441 6.65326 5.95455 7.25 5.95455ZM17.75 16.1364H7.25C6.7863 16.1345 6.33453 15.9938 5.95648 15.7334C5.57842 15.473 5.29256 15.1058 5.138 14.6818H19.862C19.7074 15.1058 19.4216 15.473 19.0435 15.7334C18.6655 15.9938 18.2137 16.1345 17.75 16.1364Z" fill="white"/>
</svg>
