<svg width="25" height="25" viewBox="0 0 25 25" fill="none" xmlns="http://www.w3.org/2000/svg">
<path d="M7.2502 17.5907H11.7502V19.0452H8.75019C8.55128 19.0452 8.36052 19.1219 8.21987 19.2583C8.07921 19.3946 8.0002 19.5796 8.0002 19.7725C8.0002 19.9654 8.07921 20.1504 8.21987 20.2868C8.36052 20.4232 8.55128 20.4998 8.75019 20.4998H16.2502C16.4491 20.4998 16.6399 20.4232 16.7805 20.2868C16.9212 20.1504 17.0002 19.9654 17.0002 19.7725C17.0002 19.5796 16.9212 19.3946 16.7805 19.2583C16.6399 19.1219 16.4491 19.0452 16.2502 19.0452H13.2502V17.5907H17.7502C18.6143 17.5897 19.4517 17.2997 20.1211 16.7698C20.7906 16.2399 21.2511 15.5024 21.4252 14.6816H3.5752C3.74927 15.5024 4.20983 16.2399 4.87926 16.7698C5.54868 17.2997 6.38604 17.5897 7.2502 17.5907V17.5907Z" fill="#1D283A"/>
<path d="M17.75 4.5H7.25C6.2558 4.50115 5.30267 4.88464 4.59966 5.56634C3.89666 6.24803 3.50119 7.17228 3.5 8.13635L3.5 13.2272H21.5V8.13635C21.4988 7.17228 21.1033 6.24803 20.4003 5.56634C19.6973 4.88464 18.7442 4.50115 17.75 4.5V4.5Z" fill="#1D283A"/>
</svg>
