<svg width="24" height="24" viewBox="0 0 24 24" fill="none" xmlns="http://www.w3.org/2000/svg">
<path d="M7.57477 14.6882C6.81322 13.9577 6.23233 13.0474 5.88128 12.0343C5.53022 11.0213 5.41933 9.93535 5.55798 8.86838C5.69508 7.78649 6.08275 6.75526 6.68775 5.86308C7.29276 4.97089 8.09706 4.24436 9.03171 3.74575C9.96637 3.24714 11.0035 2.99132 12.0542 3.00022C13.105 3.00913 14.138 3.28249 15.0647 3.79687C15.9913 4.31125 16.7841 5.05132 17.375 5.95364C17.9659 6.85596 18.3373 7.89362 18.4574 8.97768C18.5775 10.0617 18.4427 11.1599 18.0645 12.178C17.6863 13.1961 17.0761 14.1037 16.286 14.8232C15.7773 15.2774 15.3823 15.853 15.135 16.5007H12.7247V11.1135C13.1456 10.959 13.5103 10.6732 13.7688 10.2952C14.0273 9.91719 14.167 9.46548 14.1689 9.00186C14.1689 8.80297 14.0928 8.61224 13.9574 8.47161C13.822 8.33098 13.6383 8.25197 13.4468 8.25197C13.2553 8.25197 13.0716 8.33098 12.9362 8.47161C12.8008 8.61224 12.7247 8.80297 12.7247 9.00186C12.7247 9.20074 12.6486 9.39147 12.5132 9.5321C12.3778 9.67273 12.1941 9.75174 12.0026 9.75174C11.8111 9.75174 11.6274 9.67273 11.492 9.5321C11.3566 9.39147 11.2805 9.20074 11.2805 9.00186C11.2805 8.80297 11.2044 8.61224 11.069 8.47161C10.9336 8.33098 10.7499 8.25197 10.5584 8.25197C10.3669 8.25197 10.1833 8.33098 10.0478 8.47161C9.91243 8.61224 9.83635 8.80297 9.83635 9.00186C9.8382 9.46548 9.97794 9.91719 10.2364 10.2952C10.495 10.6732 10.8596 10.959 11.2805 11.1135V16.5007H8.79871C8.52265 15.8112 8.10495 15.1926 7.57477 14.6882V14.6882ZM9.11426 18.0005V18.2329C9.11503 18.9666 9.396 19.6699 9.89552 20.1887C10.395 20.7074 11.0723 20.9992 11.7788 21H12.2265C12.9329 20.9992 13.6102 20.7074 14.1097 20.1887C14.6092 19.6699 14.8902 18.9666 14.891 18.2329V18.0005H9.11426Z" fill="#F4C152"/>
</svg>
