<svg width="24" height="24" viewBox="0 0 24 24" fill="none" xmlns="http://www.w3.org/2000/svg">
<path d="M14.8889 8.25C14.5058 8.25 14.1384 8.09196 13.8675 7.81066C13.5966 7.52936 13.4444 7.14782 13.4444 6.75V3H9.11111C8.15374 3.00119 7.2359 3.39666 6.55894 4.09966C5.88197 4.80267 5.50115 5.7558 5.5 6.75V17.25C5.50115 18.2442 5.88197 19.1973 6.55894 19.9003C7.2359 20.6033 8.15374 20.9988 9.11111 21H14.8889C15.8463 20.9988 16.7641 20.6033 17.4411 19.9003C18.118 19.1973 18.4989 18.2442 18.5 17.25V8.25H14.8889ZM11.7913 17.775L10.6278 19.0043C10.3224 19.3207 9.90867 19.4985 9.47728 19.4985C9.04588 19.4985 8.63211 19.3207 8.32678 19.0043L7.87106 18.525C7.73981 18.3819 7.66823 18.1909 7.67188 17.9933C7.67554 17.7957 7.75412 17.6076 7.89056 17.4699C8.027 17.3322 8.21027 17.2559 8.40054 17.2577C8.59081 17.2595 8.77272 17.3392 8.90672 17.4795L9.35161 17.9542C9.3859 17.9865 9.43086 18.0039 9.47714 18.0026C9.52341 18.0014 9.56744 17.9816 9.60006 17.9475L10.7643 16.725C10.8288 16.6471 10.908 16.5839 10.9971 16.5391C11.0861 16.4944 11.183 16.4691 11.2819 16.4649C11.3807 16.4606 11.4793 16.4775 11.5716 16.5145C11.6639 16.5515 11.7479 16.6077 11.8184 16.6798C11.8889 16.7518 11.9443 16.8382 11.9814 16.9334C12.0184 17.0287 12.0362 17.1308 12.0337 17.2335C12.0311 17.3362 12.0083 17.4372 11.9666 17.5304C11.9249 17.6235 11.8652 17.7068 11.7913 17.775ZM12.7222 14.25V13.5H11.2778V14.25C11.2778 14.4489 11.2017 14.6397 11.0662 14.7803C10.9308 14.921 10.7471 15 10.5556 15C10.364 15 10.1803 14.921 10.0449 14.7803C9.90942 14.6397 9.83333 14.4489 9.83333 14.25V11.25C9.83333 10.6533 10.0616 10.081 10.4679 9.65901C10.8743 9.23705 11.4254 9 12 9C12.5746 9 13.1257 9.23705 13.5321 9.65901C13.9384 10.081 14.1667 10.6533 14.1667 11.25V14.25C14.1667 14.4489 14.0906 14.6397 13.9551 14.7803C13.8197 14.921 13.636 15 13.4444 15C13.2529 15 13.0692 14.921 12.9338 14.7803C12.7983 14.6397 12.7222 14.4489 12.7222 14.25ZM15.6111 18.75H14.1667C13.9751 18.75 13.7914 18.671 13.656 18.5303C13.5205 18.3897 13.4444 18.1989 13.4444 18C13.4444 17.8011 13.5205 17.6103 13.656 17.4697C13.7914 17.329 13.9751 17.25 14.1667 17.25H15.6111C15.8027 17.25 15.9864 17.329 16.1218 17.4697C16.2572 17.6103 16.3333 17.8011 16.3333 18C16.3333 18.1989 16.2572 18.3897 16.1218 18.5303C15.9864 18.671 15.8027 18.75 15.6111 18.75ZM12.7222 11.25V12H11.2778V11.25C11.2778 11.0511 11.3539 10.8603 11.4893 10.7197C11.6248 10.579 11.8085 10.5 12 10.5C12.1915 10.5 12.3752 10.579 12.5107 10.7197C12.6461 10.8603 12.7222 11.0511 12.7222 11.25V11.25ZM18.2833 6.75H14.8889V3.225C15.3986 3.40648 15.8625 3.70487 16.2459 4.098L17.4419 5.3415C17.821 5.73922 18.1086 6.2207 18.2833 6.75V6.75Z" fill="#0CA6E9"/>
</svg>
