<svg width="25" height="25" viewBox="0 0 25 25" fill="none" xmlns="http://www.w3.org/2000/svg">
<path d="M12.5003 12.4998C13.3574 12.4998 14.1952 12.2652 14.9078 11.8257C15.6204 11.3862 16.1758 10.7615 16.5038 10.0306C16.8318 9.2997 16.9176 8.49545 16.7504 7.71955C16.5832 6.94365 16.1705 6.23094 15.5645 5.67154C14.9584 5.11215 14.1863 4.7312 13.3457 4.57686C12.5051 4.42252 11.6338 4.50173 10.842 4.80448C10.0502 5.10722 9.37344 5.61989 8.89729 6.27767C8.42114 6.93545 8.16699 7.70879 8.16699 8.49989C8.16814 9.5604 8.62505 10.5772 9.43746 11.3271C10.2499 12.077 11.3514 12.4987 12.5003 12.4998ZM12.5003 5.8333C13.0717 5.8333 13.6302 5.98969 14.1053 6.2827C14.5804 6.57571 14.9507 6.99217 15.1693 7.47943C15.388 7.96669 15.4452 8.50285 15.3337 9.02012C15.2222 9.53738 14.9471 10.0125 14.5431 10.3855C14.1391 10.7584 13.6243 11.0124 13.0639 11.1152C12.5035 11.2181 11.9227 11.1653 11.3948 10.9635C10.8669 10.7617 10.4157 10.4199 10.0983 9.98137C9.78087 9.54285 9.61144 9.02729 9.61144 8.49989C9.61144 7.79267 9.9158 7.11441 10.4576 6.61432C10.9993 6.11424 11.7341 5.8333 12.5003 5.8333V5.8333Z" fill="white"/>
<path d="M12.5 13.8335C10.7767 13.8353 9.12449 14.468 7.90592 15.5928C6.68734 16.7176 6.00191 18.2426 6 19.8333C6 20.0101 6.07609 20.1797 6.21153 20.3047C6.34698 20.4297 6.53068 20.5 6.72222 20.5C6.91377 20.5 7.09747 20.4297 7.23291 20.3047C7.36835 20.1797 7.44444 20.0101 7.44444 19.8333C7.44444 18.5957 7.97708 17.4087 8.92518 16.5336C9.87328 15.6584 11.1592 15.1668 12.5 15.1668C13.8408 15.1668 15.1267 15.6584 16.0748 16.5336C17.0229 17.4087 17.5556 18.5957 17.5556 19.8333C17.5556 20.0101 17.6316 20.1797 17.7671 20.3047C17.9025 20.4297 18.0862 20.5 18.2778 20.5C18.4693 20.5 18.653 20.4297 18.7885 20.3047C18.9239 20.1797 19 20.0101 19 19.8333C18.9981 18.2426 18.3127 16.7176 17.0941 15.5928C15.8755 14.468 14.2233 13.8353 12.5 13.8335V13.8335Z" fill="white"/>
</svg>
